# AST/ASF file generated using VICON BodyLanguage
# -----------------------------------------------
:version 1.10
:name VICON
:units
  mass 1.0
  length 0.45
  angle deg
:documentation
   .ast/.asf automatically generated from VICON data using
   VICON BodyBuilder and BodyLanguage model FoxedUp or BRILLIANT.MOD
:root
   order TX TY TZ RX RY RZ
   axis XYZ
   position 0 0 0  
   orientation 0 0 0 
:bonedata
  begin
     id 1 
     name lhipjoint
     direction 0.623529 -0.717805 0.309788 
     length 2.23224 
     axis 0 0 0  XYZ
  end
  begin
     id 2 
     name lfemur
     direction 0.34202 -0.939693 0  
     length 7.11402  
     axis 0 0 20  XYZ
    dof rx ry rz
    limits (-160.0 20.0)
           (-70.0 70.0)
           (-60.0 70.0)
  end
  begin
     id 3 
     name ltibia
     direction 0.34202 -0.939693 0   
     length 6.78496   
     axis 0 0 20   XYZ
    dof rx
    limits (-10.0 170.0)
  end
  begin
     id 4 
     name lfoot
     direction 0.125078 -0.343648 0.930732   
     length 1.84054   
     axis -90 7.62852e-016 20   XYZ
    dof rx rz
    limits (-45.0 90.0)
           (-70.0 20.0)
  end
  begin
     id 5 
     name ltoes
     direction 1.53565e-011 -4.21893e-011 1   
     length 0.916474   
     axis -90 7.62852e-016 20   XYZ
    dof rx
    limits (-90.0 20.0)
  end
  begin
     id 6 
     name rhipjoint
     direction -0.564688 -0.757748 0.327026   
     length 2.11457  
     axis 0 0 0  XYZ 
  end
  begin
     id 7 
     name rfemur
     direction -0.34202 -0.939693 0   
     length 7.14609   
     axis 0 0 -20   XYZ
    dof rx ry rz
    limits (-160.0 20.0)
           (-70.0 70.0)
           (-70.0 60.0)
  end
  begin
     id 8 
     name rtibia
     direction -0.34202 -0.939693 0   
     length 6.78101   
     axis 0 0 -20   XYZ
    dof rx
    limits (-10.0 170.0)
 end
 begin
     id 9 
     name rfoot
     direction -0.0992671 -0.272734 0.956955   
     length 1.96168  
     axis -90 -7.62852e-016 -20   XYZ
    dof rx rz
    limits (-45.0 90.0)
           (-20.0 70.0)
  end
  begin
     id 10 
     name rtoes
     direction -1.5356e-011 -4.21891e-011 1   
     length 0.982933   
     axis -90 -7.62852e-016 -20   XYZ
    dof rx
    limits (-90.0 20.0)
  end
  begin
     id 11 
     name lowerback
     direction -0.00596953 0.998668 0.0512524   
     length 1.87557   
     axis 0 0 0   XYZ
    dof rx ry rz
    limits (-20.0 45.0)
           (-30.0 30.0)
           (-30.0 30.0)
  end
  begin
     id 12 
     name upperback
     direction 0.00584879 0.999652 0.0257308   
     length 1.87883   
     axis 0 0 0   XYZ
    dof rx ry rz
    limits (-20.0 45.0)
           (-30.0 30.0)
           (-30.0 30.0)
  end
  begin
     id 13 
     name thorax
     direction 0.010104 0.999947 0.00178881   
     length 1.87779   
     axis 0 0 0   XYZ
    dof rx ry rz
    limits (-20.0 45.0)
           (-30.0 30.0)
           (-30.0 30.0)
  end
  begin
     id 14 
     name lowerneck
     direction 0.0120771 0.995934 -0.0892773   
     length 1.40897   
     axis 0 0 0   XYZ
    dof rx ry rz
    limits (-20.0 45.0)
           (-30.0 30.0)
           (-30.0 30.0)
  end
  begin
     id 15 
     name upperneck
     direction -0.030568 0.999465 -0.0116366   
     length 1.38661   
     axis 0 0 0   XYZ
    dof rx ry rz
    limits (-20.0 45.0)
           (-30.0 30.0)
           (-30.0 30.0)
  end
  begin
     id 16
     name head
     direction -0.0170715 0.999854 -0.00104426  
     length 1.47052  
     axis 0 0 0   XYZ
    dof rx ry rz
    limits (-20.0 45.0)
           (-30.0 30.0)
           (-30.0 30.0)
  end
  begin
     id 17 
     name lclavicle
     direction 0.977763 0.206143 0.038532  
     length 3.02424  
     axis 0 0 0   XYZ
    dof ry rz
    limits (-20.0 10.0)
           (0.0 20.0)
  end
  begin
     id 18 
     name lhumerus
     direction 1 -4.48965e-011 -2.62654e-027   
     length 4.68382   
     axis 180 -30 -90   XYZ
    dof rx ry rz
    limits (-60.0 90.0)
           (-90.0 90.0)
           (-90.0 90.0)
  end
  begin
     id 19
     name lradius
     direction 1 -4.48973e-011 -1.54954e-027   
     length 2.98124   
     axis 180 -30 -90   XYZ
    dof rx
    limits (-10.0 170.0)
  end
  begin
     id 20
     name lwrist
     direction 1 -4.48959e-011 7.20928e-028   
     length 1.49062   
     axis -5.52449e-016 90 90   XYZ
    dof ry
    limits (-180.0 0.0)
 end
  begin
     id 21 
     name lhand
     direction 1 -4.48971e-011 1.44186e-027   
     length 0.707595   
     axis -9.20027e-016 90 90   XYZ
    dof rx rz
    limits (-90.0 90.0)
           (-45.0 45.0)
  end
  begin
     id 22 
     name lfingers
     direction 1 -4.48985e-011 2.88371e-027   
     length 0.570481   
     axis -1.84005e-015 90 90   XYZ
    dof rx
    limits (0.0 90.0)
  end
  begin
     id 23
     name lthumb
     direction 0.707107 -6.34929e-011 0.707107   
     length 0.819101   
     axis -90 45 2.85299e-015   XYZ
    dof rx rz
    limits (-45.0 45.0)
           (-45.0 45.0)
  end
  begin
     id 24 
     name rclavicle
     direction -0.958661 0.284411 -0.00895327   
     length 3.11921  
     axis 0 0 0   XYZ 
    dof ry rz
    limits (-10.0 20.0)
           (-20.0 0.0)
  end
  begin
     id 25 
     name rhumerus
     direction -1 -4.48963e-011 -4.22193e-027  
     length 4.75876   
     axis 180 30 90   XYZ
    dof rx ry rz
    limits (-90.0 60.0)
           (-90.0 90.0)
           (-90.0 90.0)
  end
  begin
     id 26 
     name rradius
     direction -1 -4.48968e-011 -1.07616e-027   
     length 2.93293   
     axis 180 30 90   XYZ
    dof rx
    limits (-10.0 170.0)
  end
  begin
     id 27 
     name rwrist
     direction -1 -4.48965e-011 7.20928e-028   
     length 1.46647   
     axis -5.52449e-016 -90 -90   XYZ
    dof ry
    limits (-180.0 0.0)
  end
  begin
     id 28
     name rhand
     direction -1 -4.48971e-011 1.44186e-027   
     length 0.831748   
     axis -9.20027e-016 -90 -90   XYZ
    dof rx rz
    limits (-90.0 90.0)
           (-45.0 45.0)
  end
  begin
     id 29
     name rfingers
     direction -1 -4.48961e-011 2.88371e-027   
     length 0.670577   
     axis -1.84005e-015 -90 -90   XYZ
    dof rx
    limits (0.0 90.0)
  end
  begin
     id 30
     name rthumb
     direction -0.707107 -6.34929e-011 0.707107   
     length 0.962818   
     axis -90 -45 -2.85299e-015   XYZ
    dof rx rz
    limits (-45.0 45.0)
           (-45.0 45.0)
  end
:hierarchy
  begin
    root lhipjoint rhipjoint lowerback
    lhipjoint lfemur
    lfemur ltibia
    ltibia lfoot
    lfoot ltoes
    rhipjoint rfemur
    rfemur rtibia
    rtibia rfoot
    rfoot rtoes
    lowerback upperback
    upperback thorax
    thorax lowerneck lclavicle rclavicle
    lowerneck upperneck
    upperneck head
    lclavicle lhumerus
    lhumerus lradius
    lradius lwrist
    lwrist lhand lthumb
    lhand lfingers
    rclavicle rhumerus
    rhumerus rradius
    rradius rwrist
    rwrist rhand rthumb
    rhand rfingers
  end

#!OML:ASF E:\id_vita\Project 1\Capture day 1\Session 1\Female.ASF
:FULLY-SPECIFIED
:DEGREES
256
root 3.26646 16.2636 0.695364 611.938 87.4446 595.257
lowerback -15.542 -2.15582 -3.23525
upperback -4.4588 -2.23376 2.18065
thorax 4.18015 -1.01828 3.71926
lowerneck -1.194 -0.411916 -4.73487
upperneck 17.8388 -0.952643 7.31144
head 5.59914 -0.107849 3.06953
rclavicle 6.1897e-015 -5.8393e-015
rhumerus -53.8949 -36.9829 -54.8386
rradius 15.8799
rwrist 30.1988
rhand -10.7861 4.38465
rfingers 7.12502
rthumb 15.2266 -25.035
lclavicle 6.1897e-015 -5.8393e-015
lhumerus -42.6498 56.637 58.9328
lradius 12.483
lwrist -68.9176
lhand -8.17419 22.8953
lfingers 7.12502
lthumb 17.7412 52.1059
rfemur -39.8748 4.33935 26.8177
rtibia 31.0176
rfoot -6.09022 -4.41429
rtoes -2.10616
lfemur -7.99205 3.24699 -18.3708
ltibia 48.401
lfoot 18.4026 -14.3003
ltoes -2.52993
257
root 3.45587 16.286 0.711801 612.603 87.0445 595.904
lowerback -15.6206 -2.06182 -3.05823
upperback -4.51116 -2.13244 2.25105
thorax 4.15454 -0.963521 3.71223
lowerneck -1.08745 -0.504665 -4.86052
upperneck 17.7068 -1.1134 7.60803
head 5.55005 -0.177303 3.17516
rclavicle 1.30757e-014 -1.97542e-015
rhumerus -51.7484 -35.4336 -57.9528
rradius 16.3597
rwrist 28.063
rhand -10.7335 4.80748
rfingers 7.12502
rthumb 15.2772 -24.6083
lclavicle 1.30757e-014 -1.97542e-015
lhumerus -53.1897 61.7173 46.8425
lradius 11.7518
lwrist -76.5504
lhand -7.96928 22.9681
lfingers 7.12502
lthumb 17.9384 52.1609
rfemur -39.0489 4.41182 27.3092
rtibia 30.9443
rfoot -6.40862 -4.85521
rtoes -2.46503
lfemur -9.33728 3.5823 -17.7078
ltibia 50.9647
lfoot 17.9079 -12.5481
ltoes -2.03536
258
root 3.64096 16.3093 0.725905 613.053 86.6772 596.467
lowerback -15.6755 -1.90394 -2.91134
upperback -4.38867 -1.95317 2.31193
thorax 4.2954 -0.880399 3.72632
lowerneck -1.19019 -0.675502 -4.96023
upperneck 17.5552 -1.37061 7.83615
head 5.53823 -0.295813 3.24953
rclavicle 1.32907e-014 -2.07606e-014
rhumerus -49.1986 -33.1449 -61.8302
rradius 17.1517
rwrist 24.7912
rhand -10.8431 4.92761
rfingers 7.12502
rthumb 15.1716 -24.4962
lclavicle 1.32907e-014 -2.07606e-014
lhumerus -67.2184 65.5068 31.1871
lradius 11.1777
lwrist -84.2085
lhand -7.83364 23.1692
lfingers 7.12502
lthumb 18.0689 52.3499
rfemur -38.0595 4.40768 27.8028
rtibia 30.7935
rfoot -6.75023 -5.22249
rtoes -2.68066
lfemur -10.6371 4.05605 -17.143
ltibia 53.4798
lfoot 17.0573 -10.9467
ltoes -0.29186
259
root 3.82598 16.335 0.735198 613.231 86.4192 596.782
lowerback -15.4621 -1.7382 -2.75781
upperback -4.43533 -1.76063 2.3043
thorax 4.10995 -0.780246 3.67124
lowerneck -1.22409 -0.887099 -4.88909
upperneck 17.5922 -1.66125 7.8284
head 5.57519 -0.430661 3.22093
rclavicle -6.60513e-015 7.57867e-015
rhumerus -47.3573 -30.6459 -65.224
rradius 18.1663
rwrist 21.928
rhand -11.0896 5.20434
rfingers 7.12502
rthumb 14.9342 -24.2373
lclavicle -6.60513e-015 7.57867e-015
lhumerus -78.448 66.2812 18.9128
lradius 10.9787
lwrist -88.713
lhand -7.54766 23.9749
lfingers 7.12502
lthumb 18.344 53.1299
rfemur -37.0153 4.41745 28.1381
rtibia 30.5382
rfoot -7.20594 -5.53568
rtoes -2.28512
lfemur -11.9919 4.54665 -16.7509
ltibia 55.9468
lfoot 15.3552 -9.49767
ltoes 2.8544
260
root 4.00911 16.3609 0.740811 614.105 86.202 597.741
lowerback -15.5013 -1.619 -2.61983
upperback -4.38615 -1.62587 2.3257
thorax 4.16867 -0.715129 3.64045
lowerneck -1.1502 -0.967222 -4.93714
upperneck 17.4297 -1.78347 7.95381
head 5.52085 -0.489379 3.26036
rclavicle 1.41537e-015 1.95306e-014
rhumerus -45.7674 -29.2249 -67.3976
rradius 18.7704
rwrist 21.3867
rhand -11.4985 5.66223
rfingers 7.12502
rthumb 14.5402 -23.8082
lclavicle 1.41537e-015 1.95306e-014
lhumerus -90.0476 66.2156 6.2345
lradius 10.9084
lwrist -93.014
lhand -7.22583 24.5805
lfingers 7.12502
lthumb 18.6536 53.7061
rfemur -35.9964 4.34798 28.4887
rtibia 30.2173
rfoot -7.65753 -5.79131
rtoes -2.53964
lfemur -13.4546 4.99004 -16.4336
ltibia 58.3327
lfoot 12.4311 -8.40599
ltoes 3.48862
261
root 4.18531 16.3799 0.747698 614.998 85.897 598.725
lowerback -15.415 -1.49944 -2.42382
upperback -4.37758 -1.50217 2.38166
thorax 4.11781 -0.652353 3.61254
lowerneck -1.24938 -1.08846 -5.20154
upperneck 17.406 -1.97423 8.25283
head 5.54692 -0.578231 3.39064
rclavicle 9.05519e-015 -1.22253e-014
rhumerus -44.3156 -27.8734 -69.2374
rradius 19.2105
rwrist 21.298
rhand -12.1443 5.83687
rfingers 7.12502
rthumb 13.9179 -23.6773
lclavicle 9.05519e-015 -1.22253e-014
lhumerus -104.346 64.8879 -9.50059
lradius 10.9005
lwrist -99.0259
lhand -7.22877 24.664
lfingers 7.12502
lthumb 18.6508 53.7899
rfemur -34.9487 4.33581 28.9274
rtibia 29.876
rfoot -8.00127 -6.21916
rtoes -3.66328
lfemur -14.9326 5.32436 -16.0196
ltibia 60.5771
lfoot 8.92567 -7.87388
ltoes -0.459741
262
root 4.35723 16.4 0.751963 615.717 85.6009 599.515
lowerback -15.2365 -1.4012 -2.19526
upperback -4.34016 -1.4168 2.47061
thorax 4.05138 -0.609726 3.594
lowerneck -2.18168 -1.48688 -5.60651
upperneck 17.9485 -2.49872 8.29453
head 5.92132 -0.832657 3.4503
rclavicle 5.76359e-015 -1.27471e-014
rhumerus -42.5994 -25.758 -71.5091
rradius 19.7644
rwrist 20.2659
rhand -12.9045 5.90188
rfingers 7.12502
rthumb 13.1853 -23.6612
lclavicle 5.76359e-015 -1.27471e-014
lhumerus -116.76 62.1756 -23.3987
lradius 10.993
lwrist -105.216
lhand -7.48133 24.8169
lfingers 7.12502
lthumb 18.4078 53.966
rfemur -33.9731 4.44899 29.2656
rtibia 29.5024
rfoot -8.24983 -6.56646
rtoes -3.77783
lfemur -16.4358 5.50322 -15.664
ltibia 62.5797
lfoot 5.90351 -6.94463
ltoes -4.59819
263
root 4.52885 16.4251 0.752927 614.777 85.497 598.623
lowerback -15.198 -1.21298 -2.09887
upperback -4.50593 -1.16673 2.36615
thorax 3.83185 -0.476128 3.47555
lowerneck -0.457594 -1.35372 -5.65409
upperneck 16.9257 -2.34193 8.49008
head 5.29442 -0.791651 3.51994
rclavicle 5.10706e-015 -3.03147e-015
rhumerus -41.6828 -23.6857 -73.4127
rradius 20.4434
rwrist 19.1101
rhand -13.8399 6.2379
rfingers 7.12502
rthumb 12.2835 -23.3813
lclavicle 5.10706e-015 -3.03147e-015
lhumerus -124.626 58.4868 -32.8949
lradius 11.1622
lwrist -110.948
lhand -7.62196 25.0463
lfingers 7.12502
lthumb 18.2726 54.2081
rfemur -33.0587 4.41118 29.3552
rtibia 29.1361
rfoot -8.46603 -6.71328
rtoes -3.645
lfemur -17.97 5.4787 -15.6218
ltibia 64.2785
lfoot 3.92371 -5.07723
ltoes -5.94939
264
root 4.70176 16.4532 0.754987 611.312 85.4492 595.401
lowerback -14.8711 -1.08618 -2.18827
upperback -4.44704 -0.991382 2.21336
thorax 3.70349 -0.392224 3.39755
lowerneck -0.253649 -1.44693 -5.48899
upperneck 16.6111 -2.48077 8.55672
head 5.1713 -0.854806 3.50272
rclavicle -2.47704e-015 8.54774e-015
rhumerus -40.4172 -22.2214 -75.0752
rradius 20.8174
rwrist 18.3862
rhand -15.0448 6.91326
rfingers 7.12502
rthumb 11.1216 -22.772
lclavicle -2.47704e-015 8.54774e-015
lhumerus -129.627 55.3675 -39.3054
lradius 11.4519
lwrist -115.226
lhand -7.57269 25.3722
lfingers 7.12502
lthumb 18.32 54.5295
rfemur -31.9318 4.14816 29.3677
rtibia 28.8703
rfoot -8.85166 -6.97067
rtoes -4.09247
lfemur -19.3403 5.29385 -15.7287
ltibia 65.7024
lfoot 2.34392 -3.22282
ltoes -8.03689
265
root 4.87425 16.4805 0.757427 606.577 85.3834 590.943
lowerback -14.7056 -1.05105 -2.32273
upperback -4.31349 -0.932053 2.06928
thorax 3.75021 -0.370355 3.33252
lowerneck -0.0543644 -1.55313 -5.46098
upperneck 16.3 -2.63594 8.66374
head 5.05339 -0.932992 3.52139
rclavicle 3.91668e-015 1.55052e-014
rhumerus -39.1858 -20.8725 -76.5671
rradius 21.3828
rwrist 17.276
rhand -15.9001 7.5288
rfingers 7.12502
rthumb 10.2965 -22.1992
lclavicle 3.91668e-015 1.55052e-014
lhumerus -133.134 52.393 -44.1633
lradius 11.7137
lwrist -118.687
lhand -7.77791 25.6333
lfingers 7.12502
lthumb 18.1225 54.809
rfemur -30.8165 3.85587 29.3261
rtibia 28.7114
rfoot -9.28926 -7.39779
rtoes -4.41732
lfemur -20.709 5.0247 -15.9367
ltibia 66.8944
lfoot 0.922446 -1.88517
ltoes -11.7652
266
root 5.03853 16.4995 0.762163 600.781 85.2957 585.182
lowerback -14.805 -1.12106 -2.57772
upperback -4.16343 -0.989237 1.97917
thorax 3.96867 -0.408356 3.37164
lowerneck -0.131627 -1.67293 -5.60928
upperneck 16.1734 -2.79937 8.73906
head 5.04243 -1.02017 3.56065
rclavicle 5.39048e-015 1.70955e-014
rhumerus -37.8016 -19.2227 -78.089
rradius 22.1357
rwrist 15.5422
rhand -16.4978 8.03915
rfingers 7.12502
rthumb 9.71994 -21.7166
lclavicle 5.39048e-015 1.70955e-014
lhumerus -136.267 49.3457 -48.6545
lradius 11.8582
lwrist -122.235
lhand -8.22916 25.7509
lfingers 7.12502
lthumb 17.6883 54.9663
rfemur -30.0447 3.65578 29.1511
rtibia 28.6264
rfoot -9.50292 -7.90508
rtoes -4.83909
lfemur -22.2334 4.42663 -16.1977
ltibia 67.8848
lfoot -0.653823 -0.737656
ltoes -12.1335
267
root 5.19797 16.5157 0.768351 594.265 85.1441 578.668
lowerback -14.7489 -1.21 -2.87413
upperback -4.119 -1.06217 1.85923
thorax 3.99352 -0.448401 3.40032
lowerneck -0.489312 -1.83755 -5.87419
upperneck 16.3127 -3.05462 9.08113
head 5.1726 -1.13036 3.70212
rclavicle -1.23215e-014 7.15625e-015
rhumerus -36.5914 -17.4831 -79.5022
rradius 22.7299
rwrist 13.6259
rhand -17.3102 8.61288
rfingers 7.12502
rthumb 8.93604 -21.1779
lclavicle -1.23215e-014 7.15625e-015
lhumerus -137.928 46.8334 -51.5262
lradius 12.0112
lwrist -124.89
lhand -8.39493 25.7733
lfingers 7.12502
lthumb 17.5288 55.003
rfemur -29.368 3.4527 28.9214
rtibia 28.6228
rfoot -9.63098 -8.40221
rtoes -5.35322
lfemur -23.7032 3.58248 -16.4312
ltibia 68.7088
lfoot -2.66084 0.360399
ltoes -9.62599
268
root 5.35612 16.5327 0.770725 590.672 85.1451 574.997
lowerback -14.7121 -1.06936 -3.06822
upperback -4.23058 -0.832249 1.62704
thorax 3.83659 -0.328729 3.30702
lowerneck 0.293457 -1.9115 -5.97634
upperneck 15.9598 -3.17981 9.32853
head 4.94404 -1.20192 3.79362
rclavicle -3.00041e-015 -4.37326e-015
rhumerus -35.9153 -16.2363 -80.5567
rradius 23.6142
rwrist 12.083
rhand -17.8589 8.74305
rfingers 7.12502
rthumb 8.40649 -21.0697
lclavicle -3.00041e-015 -4.37326e-015
lhumerus -138.221 45.0396 -52.9675
lradius 12.188
lwrist -126.657
lhand -8.15224 25.923
lfingers 7.12502
lthumb 17.7623 55.1318
rfemur -28.8334 3.37484 28.7103
rtibia 28.6624
rfoot -9.7212 -8.76114
rtoes -6.66775
lfemur -25.3227 3.07196 -16.7385
ltibia 69.3574
lfoot -4.24384 1.21576
ltoes -5.87363
269
root 5.50721 16.5448 0.769121 593.671 85.4859 577.482
lowerback -15.1339 -0.722572 -3.05405
upperback -4.42095 -0.339812 1.43202
thorax 3.82245 -0.0750909 3.18221
lowerneck 0.759181 -2.08942 -5.88427
upperneck 15.7793 -3.42468 9.34765
head 4.82845 -1.3255 3.77503
rclavicle 5.90297e-015 -1.78906e-015
rhumerus -35.0948 -15.2797 -81.3794
rradius 24.4196
rwrist 11.0001
rhand -18.4466 8.44048
rfingers 7.12502
rthumb 7.83933 -21.3942
lclavicle 5.90297e-015 -1.78906e-015
lhumerus -137.253 44.5061 -52.6456
lradius 12.2229
lwrist -126.682
lhand -7.90832 26.1595
lfingers 7.12502
lthumb 17.9971 55.3468
rfemur -28.8449 3.66096 28.5798
rtibia 28.6744
rfoot -9.85869 -8.75277
rtoes -8.01261
lfemur -27.5167 3.0834 -17.0624
ltibia 69.8833
lfoot -5.45217 1.9245
ltoes -2.58162
